<mxfile host="app.diagrams.net" modified="2024-06-23T11:17:34.060Z" agent="Mozilla/5.0 (Windows NT 10.0; Win64; x64; rv:127.0) Gecko/20100101 Firefox/127.0" version="24.6.2" etag="DUu2QVTwFpW1m6yp8wqD" type="github">
  <diagram name="Page-1" id="b3lSfJ-mZ4IB6_b0n24v">
    <mxGraphModel>
      <root>
        <mxCell id="0" />
        <mxCell id="1" parent="0" />
      </root>
    </mxGraphModel>
  </diagram>
</mxfile>
